<mxfile host="app.diagrams.net" modified="2024-05-27T01:24:56.097Z" agent="Mozilla/5.0 (Macintosh; Intel Mac OS X 10_15_7) AppleWebKit/537.36 (KHTML, like Gecko) Chrome/125.0.0.0 Safari/537.36" version="24.4.7" etag="Nl8IMmH_L-rMiG443qoO" type="github">
  <diagram name="第 1 页" id="scFUzCVCDNKK4OAvr2QL">
    <mxGraphModel>
      <root>
        <mxCell id="0" />
        <mxCell id="1" parent="0" />
      </root>
    </mxGraphModel>
  </diagram>
</mxfile>
